<svg width="470" height="456" viewBox="0 0 470 456" fill="none" xmlns="http://www.w3.org/2000/svg">
<g clip-path="url(#clip0_137_56)">
<path d="M234.968 183.275C285.406 183.275 326.295 142.387 326.295 91.9486C326.295 41.5105 285.406 0.622314 234.968 0.622314C184.53 0.622314 143.642 41.5105 143.642 91.9486C143.642 142.387 184.53 183.275 234.968 183.275Z" fill="#FFE600"/>
<path d="M91.6678 287.478C142.106 287.478 182.994 246.589 182.994 196.151C182.994 145.713 142.106 104.825 91.6678 104.825C41.2297 104.825 0.341492 145.713 0.341492 196.151C0.341492 246.589 41.2297 287.478 91.6678 287.478Z" fill="#FFE600"/>
<path d="M146.489 455.979C196.927 455.979 237.815 415.091 237.815 364.653C237.815 314.215 196.927 273.326 146.489 273.326C96.0509 273.326 55.1628 314.215 55.1628 364.653C55.1628 415.091 96.0509 455.979 146.489 455.979Z" fill="#FFE600"/>
<path d="M323.66 455.894C374.098 455.894 414.986 415.006 414.986 364.567C414.986 314.129 374.098 273.241 323.66 273.241C273.221 273.241 232.333 314.129 232.333 364.567C232.333 415.006 273.221 455.894 323.66 455.894Z" fill="#FFE600"/>
<path d="M378.354 287.371C428.792 287.371 469.68 246.483 469.68 196.045C469.68 145.607 428.792 104.719 378.354 104.719C327.916 104.719 287.027 145.607 287.027 196.045C287.027 246.483 327.916 287.371 378.354 287.371Z" fill="#FFE600"/>
<path d="M236.477 242.686C248.388 242.686 258.044 233.03 258.044 221.119C258.044 209.207 248.388 199.551 236.477 199.551C224.565 199.551 214.909 209.207 214.909 221.119C214.909 233.03 224.565 242.686 236.477 242.686Z" fill="#FFE600"/>
<path d="M235.032 285.82C246.943 285.82 256.599 276.164 256.599 264.253C256.599 252.342 246.943 242.686 235.032 242.686C223.12 242.686 213.464 252.342 213.464 264.253C213.464 276.164 223.12 285.82 235.032 285.82Z" fill="#FFE600"/>
<path d="M234.968 350.522C294.524 350.522 342.804 302.242 342.804 242.686C342.804 183.129 294.524 134.849 234.968 134.849C175.412 134.849 127.132 183.129 127.132 242.686C127.132 302.242 175.412 350.522 234.968 350.522Z" fill="#FFE600"/>
<path d="M169.284 225.935C198.958 288.753 268.657 288.878 300.716 229.624" stroke="#ED2024" stroke-width="40.5211" stroke-linecap="round"/>
</g>
<defs>
<clipPath id="clip0_137_56">
<rect width="469.402" height="455.378" fill="white" transform="translate(0.299103 0.622314)"/>
</clipPath>
</defs>
</svg>
