<svg width="370" height="198" viewBox="0 0 370 198" fill="none" xmlns="http://www.w3.org/2000/svg">
<rect x="150" y="92" width="219.685" height="45" rx="22.5" fill="#1400FF"/>
<path d="M345.751 117.258V109.114H349.684V123.296H345.908V120.72H345.76C345.44 121.551 344.907 122.219 344.163 122.724C343.424 123.228 342.522 123.481 341.457 123.481C340.509 123.481 339.675 123.265 338.955 122.834C338.235 122.404 337.672 121.791 337.266 120.997C336.866 120.203 336.662 119.252 336.656 118.144V109.114H340.589V117.442C340.596 118.28 340.82 118.941 341.264 119.427C341.707 119.914 342.301 120.157 343.045 120.157C343.519 120.157 343.963 120.049 344.375 119.834C344.787 119.612 345.12 119.286 345.372 118.855C345.631 118.424 345.757 117.892 345.751 117.258Z" fill="white"/>
<path d="M327.222 123.573C325.788 123.573 324.548 123.268 323.501 122.659C322.461 122.044 321.658 121.188 321.092 120.092C320.525 118.991 320.242 117.713 320.242 116.261C320.242 114.796 320.525 113.515 321.092 112.42C321.658 111.318 322.461 110.462 323.501 109.853C324.548 109.237 325.788 108.93 327.222 108.93C328.656 108.93 329.894 109.237 330.934 109.853C331.98 110.462 332.787 111.318 333.353 112.42C333.919 113.515 334.202 114.796 334.202 116.261C334.202 117.713 333.919 118.991 333.353 120.092C332.787 121.188 331.98 122.044 330.934 122.659C329.894 123.268 328.656 123.573 327.222 123.573ZM327.241 120.526C327.893 120.526 328.438 120.342 328.875 119.972C329.312 119.597 329.641 119.086 329.863 118.44C330.091 117.793 330.205 117.058 330.205 116.233C330.205 115.408 330.091 114.673 329.863 114.026C329.641 113.38 329.312 112.869 328.875 112.494C328.438 112.118 327.893 111.93 327.241 111.93C326.582 111.93 326.028 112.118 325.579 112.494C325.136 112.869 324.8 113.38 324.572 114.026C324.351 114.673 324.24 115.408 324.24 116.233C324.24 117.058 324.351 117.793 324.572 118.44C324.8 119.086 325.136 119.597 325.579 119.972C326.028 120.342 326.582 120.526 327.241 120.526Z" fill="white"/>
<path d="M308.57 128.614C308.072 128.614 307.604 128.574 307.167 128.494C306.736 128.42 306.379 128.325 306.096 128.208L306.982 125.272C307.444 125.414 307.859 125.49 308.229 125.503C308.604 125.515 308.927 125.429 309.198 125.244C309.475 125.06 309.7 124.746 309.872 124.302L310.103 123.702L305.016 109.114H309.152L312.088 119.529H312.236L315.2 109.114H319.364L313.852 124.829C313.587 125.592 313.227 126.257 312.771 126.823C312.322 127.396 311.753 127.836 311.063 128.143C310.374 128.457 309.543 128.614 308.57 128.614Z" fill="white"/>
<path d="M297.183 104.387V123.296H293.25V104.387H297.183Z" fill="white"/>
<path d="M290.203 104.387V123.296H286.27V104.387H290.203Z" fill="white"/>
<path d="M277.297 123.573C275.838 123.573 274.583 123.278 273.53 122.687C272.484 122.09 271.677 121.246 271.111 120.157C270.545 119.061 270.262 117.766 270.262 116.27C270.262 114.811 270.545 113.531 271.111 112.429C271.677 111.327 272.475 110.469 273.502 109.853C274.537 109.237 275.749 108.93 277.14 108.93C278.076 108.93 278.947 109.08 279.753 109.382C280.566 109.678 281.274 110.124 281.877 110.721C282.486 111.318 282.96 112.069 283.299 112.974C283.637 113.872 283.806 114.925 283.806 116.131V117.212H271.831V114.774H280.104C280.104 114.208 279.981 113.706 279.735 113.269C279.489 112.832 279.147 112.491 278.71 112.244C278.279 111.992 277.777 111.866 277.205 111.866C276.608 111.866 276.078 112.004 275.617 112.281C275.161 112.552 274.804 112.918 274.546 113.38C274.287 113.835 274.155 114.343 274.149 114.903V117.221C274.149 117.923 274.278 118.529 274.537 119.04C274.801 119.551 275.174 119.945 275.654 120.222C276.134 120.499 276.703 120.637 277.362 120.637C277.799 120.637 278.199 120.576 278.562 120.452C278.925 120.329 279.236 120.145 279.495 119.898C279.753 119.652 279.95 119.351 280.086 118.994L283.723 119.234C283.539 120.108 283.16 120.871 282.588 121.523C282.021 122.17 281.289 122.674 280.39 123.038C279.498 123.395 278.467 123.573 277.297 123.573Z" fill="white"/>
<path d="M268.529 109.114V112.068H259.988V109.114H268.529ZM261.927 105.716H265.86V118.937C265.86 119.301 265.916 119.584 266.027 119.787C266.137 119.984 266.291 120.122 266.488 120.202C266.691 120.282 266.925 120.322 267.19 120.322C267.375 120.322 267.559 120.307 267.744 120.276C267.929 120.239 268.07 120.212 268.169 120.193L268.787 123.12C268.59 123.181 268.313 123.252 267.956 123.332C267.599 123.418 267.165 123.471 266.654 123.489C265.707 123.526 264.876 123.4 264.162 123.111C263.454 122.821 262.903 122.372 262.509 121.763C262.115 121.153 261.921 120.384 261.927 119.454V105.716Z" fill="white"/>
<path d="M246.098 123.573C244.639 123.573 243.384 123.278 242.331 122.687C241.285 122.09 240.478 121.246 239.912 120.157C239.346 119.061 239.062 117.766 239.062 116.27C239.062 114.811 239.346 113.531 239.912 112.429C240.478 111.327 241.275 110.469 242.303 109.853C243.337 109.237 244.55 108.93 245.941 108.93C246.877 108.93 247.748 109.08 248.554 109.382C249.366 109.678 250.074 110.124 250.678 110.721C251.287 111.318 251.761 112.069 252.099 112.974C252.438 113.872 252.607 114.925 252.607 116.131V117.212H240.632V114.774H248.905C248.905 114.208 248.782 113.706 248.536 113.269C248.289 112.832 247.948 112.491 247.511 112.244C247.08 111.992 246.578 111.866 246.006 111.866C245.409 111.866 244.879 112.004 244.418 112.281C243.962 112.552 243.605 112.918 243.347 113.38C243.088 113.835 242.956 114.343 242.95 114.903V117.221C242.95 117.923 243.079 118.529 243.337 119.04C243.602 119.551 243.974 119.945 244.455 120.222C244.935 120.499 245.504 120.637 246.163 120.637C246.6 120.637 247 120.576 247.363 120.452C247.726 120.329 248.037 120.145 248.295 119.898C248.554 119.652 248.751 119.351 248.886 118.994L252.524 119.234C252.339 120.108 251.961 120.871 251.388 121.523C250.822 122.17 250.09 122.674 249.191 123.038C248.299 123.395 247.268 123.573 246.098 123.573Z" fill="white"/>
<path d="M216.027 123.296V109.114H219.776V111.616H219.942C220.238 110.786 220.73 110.13 221.419 109.65C222.109 109.17 222.934 108.93 223.894 108.93C224.866 108.93 225.694 109.173 226.377 109.659C227.061 110.139 227.516 110.792 227.744 111.616H227.892C228.181 110.804 228.704 110.155 229.461 109.668C230.225 109.176 231.126 108.93 232.167 108.93C233.49 108.93 234.564 109.351 235.389 110.195C236.22 111.032 236.635 112.22 236.635 113.759V123.296H232.711V114.534C232.711 113.746 232.502 113.155 232.083 112.761C231.665 112.367 231.142 112.17 230.514 112.17C229.8 112.17 229.243 112.398 228.843 112.854C228.443 113.303 228.243 113.897 228.243 114.636V123.296H224.429V114.451C224.429 113.755 224.229 113.201 223.829 112.789C223.435 112.377 222.915 112.17 222.269 112.17C221.832 112.17 221.438 112.281 221.087 112.503C220.742 112.718 220.468 113.023 220.265 113.417C220.062 113.805 219.961 114.26 219.961 114.783V123.296H216.027Z" fill="white"/>
<path d="M192.414 123.296V109.114H196.163V111.616H196.329C196.624 110.786 197.117 110.13 197.806 109.65C198.496 109.17 199.32 108.93 200.281 108.93C201.253 108.93 202.081 109.173 202.764 109.659C203.447 110.139 203.903 110.792 204.131 111.616H204.278C204.568 110.804 205.091 110.155 205.848 109.668C206.611 109.176 207.513 108.93 208.553 108.93C209.877 108.93 210.951 109.351 211.776 110.195C212.607 111.032 213.022 112.22 213.022 113.759V123.296H209.098V114.534C209.098 113.746 208.889 113.155 208.47 112.761C208.052 112.367 207.528 112.17 206.901 112.17C206.187 112.17 205.629 112.398 205.229 112.854C204.829 113.303 204.629 113.897 204.629 114.636V123.296H200.816V114.451C200.816 113.755 200.616 113.201 200.216 112.789C199.822 112.377 199.302 112.17 198.656 112.17C198.219 112.17 197.825 112.281 197.474 112.503C197.129 112.718 196.855 113.023 196.652 113.417C196.449 113.805 196.347 114.26 196.347 114.783V123.296H192.414Z" fill="white"/>
<path d="M183.442 123.573C181.983 123.573 180.727 123.278 179.675 122.687C178.628 122.09 177.822 121.246 177.256 120.157C176.689 119.061 176.406 117.766 176.406 116.27C176.406 114.811 176.689 113.531 177.256 112.429C177.822 111.327 178.619 110.469 179.647 109.853C180.681 109.237 181.894 108.93 183.285 108.93C184.22 108.93 185.091 109.08 185.898 109.382C186.71 109.678 187.418 110.124 188.021 110.721C188.631 111.318 189.105 112.069 189.443 112.974C189.782 113.872 189.951 114.925 189.951 116.131V117.212H177.976V114.774H186.249C186.249 114.208 186.125 113.706 185.879 113.269C185.633 112.832 185.291 112.491 184.854 112.244C184.424 111.992 183.922 111.866 183.349 111.866C182.752 111.866 182.223 112.004 181.761 112.281C181.306 112.552 180.949 112.918 180.69 113.38C180.432 113.835 180.299 114.343 180.293 114.903V117.221C180.293 117.923 180.423 118.529 180.681 119.04C180.946 119.551 181.318 119.945 181.798 120.222C182.278 120.499 182.848 120.637 183.506 120.637C183.943 120.637 184.344 120.576 184.707 120.452C185.07 120.329 185.381 120.145 185.639 119.898C185.898 119.652 186.095 119.351 186.23 118.994L189.868 119.234C189.683 120.108 189.305 120.871 188.732 121.523C188.166 122.17 187.433 122.674 186.535 123.038C185.642 123.395 184.611 123.573 183.442 123.573Z" fill="white"/>
<path d="M173.933 104.387V123.296H170V104.387H173.933Z" fill="white"/>
<rect width="365.521" height="49.4446" rx="24.7223" fill="#FF5C00"/>
<path d="M337.047 28.4986V28.1847C337.053 27.1075 337.148 26.2488 337.333 25.6087C337.524 24.9685 337.801 24.4515 338.164 24.0575C338.527 23.6636 338.964 23.3066 339.475 22.9865C339.857 22.7403 340.198 22.4848 340.5 22.2202C340.802 21.9555 341.042 21.6631 341.22 21.343C341.399 21.0168 341.488 20.6536 341.488 20.2536C341.488 19.8288 341.386 19.4564 341.183 19.1364C340.98 18.8163 340.706 18.5701 340.362 18.3977C340.023 18.2254 339.648 18.1392 339.235 18.1392C338.835 18.1392 338.456 18.2285 338.099 18.407C337.742 18.5793 337.45 18.8378 337.222 19.1825C336.995 19.5211 336.871 19.9427 336.853 20.4474H333.086C333.117 19.2164 333.412 18.2008 333.972 17.4006C334.532 16.5942 335.274 15.9941 336.197 15.6001C337.121 15.2 338.139 15 339.254 15C340.478 15 341.562 15.2031 342.504 15.6094C343.445 16.0095 344.184 16.5911 344.719 17.3544C345.255 18.1177 345.523 19.0379 345.523 20.1151C345.523 20.8352 345.403 21.4754 345.163 22.0355C344.929 22.5895 344.599 23.0819 344.175 23.5128C343.75 23.9375 343.248 24.3222 342.67 24.6669C342.184 24.9562 341.783 25.2578 341.469 25.5717C341.162 25.8857 340.931 26.2488 340.777 26.6612C340.629 27.0736 340.552 27.5814 340.546 28.1847V28.4986H337.047ZM338.875 34.4077C338.259 34.4077 337.733 34.1922 337.296 33.7614C336.865 33.3243 336.653 32.8011 336.659 32.1918C336.653 31.5885 336.865 31.0715 337.296 30.6406C337.733 30.2098 338.259 29.9943 338.875 29.9943C339.46 29.9943 339.974 30.2098 340.417 30.6406C340.86 31.0715 341.085 31.5885 341.091 32.1918C341.085 32.598 340.977 32.9704 340.768 33.3089C340.565 33.6413 340.297 33.9091 339.965 34.1122C339.632 34.3092 339.269 34.4077 338.875 34.4077Z" fill="white"/>
<path d="M324.234 34.4442C322.8 34.4442 321.56 34.1396 320.513 33.5302C319.473 32.9147 318.67 32.0591 318.103 30.9634C317.537 29.8616 317.254 28.5844 317.254 27.1317C317.254 25.6668 317.537 24.3865 318.103 23.2908C318.67 22.189 319.473 21.3335 320.513 20.7241C321.56 20.1085 322.8 19.8008 324.234 19.8008C325.668 19.8008 326.905 20.1085 327.946 20.7241C328.992 21.3335 329.798 22.189 330.365 23.2908C330.931 24.3865 331.214 25.6668 331.214 27.1317C331.214 28.5844 330.931 29.8616 330.365 30.9634C329.798 32.0591 328.992 32.9147 327.946 33.5302C326.905 34.1396 325.668 34.4442 324.234 34.4442ZM324.252 31.3974C324.905 31.3974 325.45 31.2127 325.887 30.8434C326.324 30.4679 326.653 29.957 326.875 29.3107C327.102 28.6644 327.216 27.9289 327.216 27.104C327.216 26.2792 327.102 25.5437 326.875 24.8974C326.653 24.2511 326.324 23.7402 325.887 23.3647C325.45 22.9892 324.905 22.8015 324.252 22.8015C323.594 22.8015 323.04 22.9892 322.591 23.3647C322.147 23.7402 321.812 24.2511 321.584 24.8974C321.363 25.5437 321.252 26.2792 321.252 27.104C321.252 27.9289 321.363 28.6644 321.584 29.3107C321.812 29.957 322.147 30.4679 322.591 30.8434C323.04 31.2127 323.594 31.3974 324.252 31.3974Z" fill="white"/>
<path d="M307.949 34.1672V19.9854H311.762V22.4598H311.91C312.169 21.5796 312.603 20.9148 313.212 20.4655C313.821 20.01 314.523 19.7822 315.317 19.7822C315.514 19.7822 315.726 19.7945 315.954 19.8192C316.182 19.8438 316.382 19.8776 316.554 19.9207V23.4108C316.37 23.3554 316.114 23.3061 315.788 23.2631C315.462 23.22 315.163 23.1984 314.892 23.1984C314.314 23.1984 313.797 23.3246 313.341 23.577C312.892 23.8232 312.535 24.1679 312.27 24.6111C312.012 25.0542 311.882 25.5651 311.882 26.1437V34.1672H307.949Z" fill="white"/>
<path d="M291.598 34.1679V15.2588H295.531V22.3682H295.651C295.823 21.9865 296.073 21.5988 296.399 21.2048C296.731 20.8047 297.162 20.4723 297.691 20.2077C298.227 19.9368 298.892 19.8014 299.686 19.8014C300.72 19.8014 301.674 20.0722 302.548 20.6139C303.422 21.1494 304.121 21.9588 304.644 23.0422C305.167 24.1193 305.429 25.4704 305.429 27.0954C305.429 28.6774 305.173 30.0131 304.662 31.1025C304.158 32.1859 303.468 33.0076 302.594 33.5677C301.726 34.1217 300.754 34.3987 299.676 34.3987C298.913 34.3987 298.264 34.2725 297.728 34.0202C297.199 33.7678 296.765 33.4508 296.426 33.0692C296.088 32.6814 295.829 32.2905 295.651 31.8966H295.475V34.1679H291.598ZM295.448 27.077C295.448 27.9202 295.565 28.6558 295.799 29.2836C296.033 29.9115 296.371 30.4008 296.814 30.7517C297.257 31.0964 297.796 31.2687 298.43 31.2687C299.07 31.2687 299.612 31.0933 300.055 30.7425C300.498 30.3854 300.834 29.893 301.061 29.2652C301.295 28.6312 301.412 27.9018 301.412 27.077C301.412 26.2583 301.298 25.5381 301.071 24.9165C300.843 24.2948 300.507 23.8085 300.064 23.4577C299.621 23.1068 299.076 22.9314 298.43 22.9314C297.79 22.9314 297.248 23.1006 296.805 23.4392C296.368 23.7777 296.033 24.2578 295.799 24.8795C295.565 25.5012 295.448 26.2337 295.448 27.077Z" fill="white"/>
<path d="M273.476 25.9684V34.1673H269.543V19.9854H273.292V22.4876H273.458C273.772 21.6628 274.298 21.0103 275.037 20.5302C275.775 20.0439 276.671 19.8008 277.723 19.8008C278.708 19.8008 279.567 20.0162 280.299 20.4471C281.032 20.878 281.601 21.4935 282.007 22.2937C282.414 23.0877 282.617 24.0356 282.617 25.1374V34.1673H278.684V25.8391C278.69 24.9712 278.468 24.2942 278.019 23.8079C277.569 23.3155 276.951 23.0692 276.163 23.0692C275.634 23.0692 275.166 23.1831 274.76 23.4109C274.36 23.6386 274.046 23.971 273.818 24.408C273.596 24.8389 273.482 25.359 273.476 25.9684Z" fill="white"/>
<path d="M258.607 34.435C257.702 34.435 256.896 34.2781 256.188 33.9641C255.48 33.6441 254.92 33.1732 254.508 32.5515C254.102 31.9237 253.898 31.1419 253.898 30.2063C253.898 29.4184 254.043 28.7567 254.332 28.2212C254.622 27.6857 255.016 27.2549 255.514 26.9286C256.013 26.6024 256.579 26.3562 257.213 26.19C257.853 26.0238 258.524 25.9068 259.226 25.8391C260.051 25.753 260.715 25.6729 261.22 25.5991C261.725 25.5191 262.091 25.4021 262.319 25.2482C262.547 25.0943 262.661 24.8666 262.661 24.565V24.5096C262.661 23.9248 262.476 23.4724 262.107 23.1523C261.743 22.8323 261.226 22.6722 260.555 22.6722C259.848 22.6722 259.284 22.8292 258.866 23.1431C258.447 23.4509 258.17 23.8387 258.035 24.3065L254.397 24.011C254.582 23.1493 254.945 22.4045 255.487 21.7766C256.028 21.1426 256.727 20.6564 257.582 20.3178C258.444 19.9731 259.441 19.8008 260.574 19.8008C261.362 19.8008 262.116 19.8931 262.836 20.0778C263.562 20.2624 264.205 20.5487 264.766 20.9364C265.332 21.3242 265.778 21.8228 266.104 22.4322C266.431 23.0354 266.594 23.7586 266.594 24.6019V34.1673H262.864V32.2006H262.753C262.525 32.6438 262.22 33.0347 261.839 33.3732C261.457 33.7056 260.999 33.9672 260.463 34.158C259.928 34.3427 259.309 34.435 258.607 34.435ZM259.734 31.7205C260.312 31.7205 260.823 31.6067 261.266 31.3789C261.71 31.145 262.057 30.8311 262.31 30.4371C262.562 30.0432 262.688 29.5969 262.688 29.0984V27.5934C262.565 27.6734 262.396 27.7473 262.18 27.815C261.971 27.8765 261.734 27.935 261.469 27.9904C261.205 28.0397 260.94 28.0858 260.675 28.1289C260.411 28.1658 260.171 28.1997 259.955 28.2305C259.494 28.2982 259.09 28.4059 258.746 28.5536C258.401 28.7013 258.133 28.9014 257.942 29.1538C257.752 29.4 257.656 29.7077 257.656 30.0771C257.656 30.6126 257.85 31.0219 258.238 31.305C258.632 31.582 259.13 31.7205 259.734 31.7205Z" fill="white"/>
<path d="M245.59 34.4442C244.131 34.4442 242.876 34.1488 241.823 33.5579C240.777 32.9608 239.97 32.1175 239.404 31.0281C238.838 29.9324 238.555 28.6367 238.555 27.141C238.555 25.6822 238.838 24.4019 239.404 23.3001C239.97 22.1983 240.768 21.3396 241.795 20.7241C242.83 20.1085 244.042 19.8008 245.433 19.8008C246.369 19.8008 247.24 19.9516 248.046 20.2532C248.859 20.5487 249.567 20.9949 250.17 21.592C250.779 22.189 251.253 22.94 251.592 23.8448C251.93 24.7435 252.099 25.796 252.099 27.0025V28.0827H240.124V25.6452H248.397C248.397 25.079 248.274 24.5773 248.028 24.1403C247.781 23.7032 247.44 23.3616 247.003 23.1154C246.572 22.863 246.07 22.7369 245.498 22.7369C244.901 22.7369 244.371 22.8754 243.91 23.1523C243.454 23.4232 243.097 23.7894 242.839 24.2511C242.58 24.7066 242.448 25.2144 242.442 25.7745V28.092C242.442 28.7937 242.571 29.4 242.83 29.9109C243.094 30.4218 243.467 30.8157 243.947 31.0927C244.427 31.3697 244.996 31.5082 245.655 31.5082C246.092 31.5082 246.492 31.4466 246.855 31.3235C247.218 31.2004 247.529 31.0157 247.788 30.7695C248.046 30.5233 248.243 30.2217 248.379 29.8647L252.016 30.1048C251.832 30.9788 251.453 31.7421 250.881 32.3945C250.314 33.0408 249.582 33.5456 248.683 33.9087C247.791 34.2657 246.76 34.4442 245.59 34.4442Z" fill="white"/>
<path d="M215.516 34.1673V19.9854H219.264V22.4876H219.43C219.726 21.6566 220.218 21.0011 220.908 20.521C221.597 20.0408 222.422 19.8008 223.382 19.8008C224.355 19.8008 225.183 20.0439 225.866 20.5302C226.549 21.0103 227.005 21.6628 227.232 22.4876H227.38C227.669 21.6751 228.192 21.0257 228.95 20.5394C229.713 20.047 230.615 19.8008 231.655 19.8008C232.978 19.8008 234.052 20.2224 234.877 21.0657C235.708 21.9028 236.124 23.0908 236.124 24.6296V34.1673H232.2V25.4052C232.2 24.6173 231.99 24.0264 231.572 23.6325C231.153 23.2385 230.63 23.0415 230.002 23.0415C229.288 23.0415 228.731 23.2693 228.331 23.7248C227.931 24.1741 227.731 24.7681 227.731 25.5067V34.1673H223.918V25.3221C223.918 24.6265 223.718 24.0726 223.317 23.6602C222.924 23.2478 222.403 23.0415 221.757 23.0415C221.32 23.0415 220.926 23.1523 220.575 23.3739C220.231 23.5894 219.957 23.8941 219.754 24.288C219.55 24.6758 219.449 25.1313 219.449 25.6545V34.1673H215.516Z" fill="white"/>
<path d="M207.146 19.9856V22.9402H198.605V19.9856H207.146ZM200.544 16.5879H204.478V29.8095C204.478 30.1726 204.533 30.4558 204.644 30.6589C204.755 30.8559 204.908 30.9944 205.105 31.0744C205.309 31.1544 205.542 31.1944 205.807 31.1944C205.992 31.1944 206.176 31.179 206.361 31.1483C206.546 31.1113 206.687 31.0836 206.786 31.0652L207.404 33.992C207.207 34.0536 206.931 34.1243 206.574 34.2044C206.216 34.2905 205.783 34.3429 205.272 34.3613C204.324 34.3983 203.493 34.2721 202.779 33.9828C202.071 33.6935 201.52 33.2441 201.126 32.6348C200.732 32.0254 200.538 31.256 200.544 30.3265V16.5879Z" fill="white"/>
<path d="M188.67 34.435C187.765 34.435 186.959 34.2781 186.251 33.9641C185.543 33.6441 184.983 33.1732 184.57 32.5515C184.164 31.9237 183.961 31.1419 183.961 30.2063C183.961 29.4184 184.106 28.7567 184.395 28.2212C184.684 27.6857 185.078 27.2549 185.577 26.9286C186.075 26.6024 186.642 26.3562 187.276 26.19C187.916 26.0238 188.587 25.9068 189.288 25.8391C190.113 25.753 190.778 25.6729 191.283 25.5991C191.787 25.5191 192.154 25.4021 192.381 25.2482C192.609 25.0943 192.723 24.8666 192.723 24.565V24.5096C192.723 23.9248 192.538 23.4724 192.169 23.1523C191.806 22.8323 191.289 22.6722 190.618 22.6722C189.91 22.6722 189.347 22.8292 188.928 23.1431C188.51 23.4509 188.233 23.8387 188.097 24.3065L184.46 24.011C184.644 23.1493 185.007 22.4045 185.549 21.7766C186.091 21.1426 186.789 20.6564 187.645 20.3178C188.507 19.9731 189.504 19.8008 190.636 19.8008C191.424 19.8008 192.178 19.8931 192.898 20.0778C193.625 20.2624 194.268 20.5487 194.828 20.9364C195.394 21.3242 195.841 21.8228 196.167 22.4322C196.493 23.0354 196.656 23.7586 196.656 24.6019V34.1673H192.926V32.2006H192.815C192.588 32.6438 192.283 33.0347 191.901 33.3732C191.52 33.7056 191.061 33.9672 190.526 34.158C189.99 34.3427 189.371 34.435 188.67 34.435ZM189.796 31.7205C190.375 31.7205 190.886 31.6067 191.329 31.3789C191.772 31.145 192.12 30.8311 192.372 30.4371C192.625 30.0432 192.751 29.5969 192.751 29.0984V27.5934C192.628 27.6734 192.458 27.7473 192.243 27.815C192.034 27.8765 191.797 27.935 191.532 27.9904C191.267 28.0397 191.003 28.0858 190.738 28.1289C190.473 28.1658 190.233 28.1997 190.018 28.2305C189.556 28.2982 189.153 28.4059 188.808 28.5536C188.464 28.7013 188.196 28.9014 188.005 29.1538C187.814 29.4 187.719 29.7077 187.719 30.0771C187.719 30.6126 187.913 31.0219 188.3 31.305C188.694 31.582 189.193 31.7205 189.796 31.7205Z" fill="white"/>
<path d="M172.437 25.969V34.1679H168.504V15.2588H172.326V22.4882H172.493C172.813 21.6511 173.33 20.9955 174.044 20.5216C174.758 20.0415 175.653 19.8014 176.73 19.8014C177.715 19.8014 178.574 20.0168 179.306 20.4477C180.045 20.8724 180.618 21.4849 181.024 22.2851C181.436 23.0791 181.639 24.0301 181.633 25.1381V34.1679H177.7V25.8398C177.706 24.9657 177.484 24.2855 177.035 23.7993C176.592 23.313 175.97 23.0699 175.17 23.0699C174.635 23.0699 174.161 23.1837 173.748 23.4115C173.342 23.6392 173.022 23.9716 172.788 24.4086C172.56 24.8395 172.443 25.3596 172.437 25.969Z" fill="white"/>
<path d="M165.74 19.9856V22.9402H157.199V19.9856H165.74ZM159.138 16.5879H163.071V29.8095C163.071 30.1726 163.127 30.4558 163.238 30.6589C163.348 30.8559 163.502 30.9944 163.699 31.0744C163.902 31.1544 164.136 31.1944 164.401 31.1944C164.586 31.1944 164.77 31.179 164.955 31.1483C165.14 31.1113 165.281 31.0836 165.38 31.0652L165.998 33.992C165.801 34.0536 165.524 34.1243 165.167 34.2044C164.81 34.2905 164.376 34.3429 163.865 34.3613C162.917 34.3983 162.087 34.2721 161.373 33.9828C160.665 33.6935 160.114 33.2441 159.72 32.6348C159.326 32.0254 159.132 31.256 159.138 30.3265V16.5879Z" fill="white"/>
<path d="M149.588 24.0295L145.987 24.2511C145.925 23.9433 145.793 23.6663 145.59 23.4201C145.387 23.1677 145.119 22.9677 144.787 22.82C144.46 22.6661 144.069 22.5891 143.614 22.5891C143.005 22.5891 142.491 22.7184 142.072 22.9769C141.654 23.2293 141.444 23.5678 141.444 23.9925C141.444 24.3311 141.58 24.6173 141.85 24.8512C142.121 25.0851 142.586 25.2728 143.245 25.4144L145.811 25.9315C147.19 26.2146 148.218 26.6701 148.895 27.2979C149.572 27.9258 149.911 28.7506 149.911 29.7724C149.911 30.7018 149.637 31.5174 149.089 32.2191C148.547 32.9208 147.803 33.4686 146.855 33.8626C145.913 34.2504 144.827 34.4442 143.596 34.4442C141.718 34.4442 140.222 34.0534 139.108 33.2717C138 32.4838 137.351 31.4128 137.16 30.0586L141.029 29.8555C141.146 30.4279 141.429 30.8649 141.878 31.1665C142.328 31.462 142.903 31.6097 143.605 31.6097C144.294 31.6097 144.848 31.4774 145.267 31.2127C145.691 30.9419 145.907 30.5941 145.913 30.1694C145.907 29.8124 145.756 29.52 145.461 29.2923C145.165 29.0584 144.71 28.8799 144.094 28.7567L141.638 28.2674C140.253 27.9904 139.222 27.5103 138.545 26.8271C137.874 26.1438 137.539 25.2728 137.539 24.2141C137.539 23.3031 137.785 22.5183 138.277 21.8597C138.776 21.2011 139.475 20.6933 140.373 20.3363C141.278 19.9793 142.337 19.8008 143.549 19.8008C145.341 19.8008 146.75 20.1793 147.778 20.9364C148.812 21.6935 149.415 22.7246 149.588 24.0295Z" fill="white"/>
<path d="M128.817 34.4442C127.358 34.4442 126.102 34.1488 125.05 33.5579C124.003 32.9608 123.197 32.1175 122.631 31.0281C122.064 29.9324 121.781 28.6367 121.781 27.141C121.781 25.6822 122.064 24.4019 122.631 23.3001C123.197 22.1983 123.994 21.3396 125.022 20.7241C126.056 20.1085 127.269 19.8008 128.66 19.8008C129.595 19.8008 130.466 19.9516 131.273 20.2532C132.085 20.5487 132.793 20.9949 133.396 21.592C134.006 22.189 134.48 22.94 134.818 23.8448C135.157 24.7435 135.326 25.796 135.326 27.0025V28.0827H123.351V25.6452H131.624C131.624 25.079 131.5 24.5773 131.254 24.1403C131.008 23.7032 130.666 23.3616 130.229 23.1154C129.799 22.863 129.297 22.7369 128.724 22.7369C128.127 22.7369 127.598 22.8754 127.136 23.1523C126.681 23.4232 126.324 23.7894 126.065 24.2511C125.807 24.7066 125.674 25.2144 125.668 25.7745V28.092C125.668 28.7937 125.798 29.4 126.056 29.9109C126.321 30.4218 126.693 30.8157 127.173 31.0927C127.653 31.3697 128.223 31.5082 128.881 31.5082C129.318 31.5082 129.719 31.4466 130.082 31.3235C130.445 31.2004 130.756 31.0157 131.014 30.7695C131.273 30.5233 131.47 30.2217 131.605 29.8647L135.243 30.1048C135.058 30.9788 134.68 31.7421 134.107 32.3945C133.541 33.0408 132.808 33.5456 131.91 33.9087C131.017 34.2657 129.986 34.4442 128.817 34.4442Z" fill="white"/>
<path d="M112.922 34.4442C111.487 34.4442 110.247 34.1396 109.201 33.5302C108.16 32.9147 107.357 32.0591 106.791 30.9634C106.225 29.8616 105.941 28.5844 105.941 27.1317C105.941 25.6668 106.225 24.3865 106.791 23.2908C107.357 22.189 108.16 21.3335 109.201 20.7241C110.247 20.1085 111.487 19.8008 112.922 19.8008C114.356 19.8008 115.593 20.1085 116.633 20.7241C117.68 21.3335 118.486 22.189 119.052 23.2908C119.618 24.3865 119.902 25.6668 119.902 27.1317C119.902 28.5844 119.618 29.8616 119.052 30.9634C118.486 32.0591 117.68 32.9147 116.633 33.5302C115.593 34.1396 114.356 34.4442 112.922 34.4442ZM112.94 31.3974C113.592 31.3974 114.137 31.2127 114.574 30.8434C115.011 30.4679 115.341 29.957 115.562 29.3107C115.79 28.6644 115.904 27.9289 115.904 27.104C115.904 26.2792 115.79 25.5437 115.562 24.8974C115.341 24.2511 115.011 23.7402 114.574 23.3647C114.137 22.9892 113.592 22.8015 112.94 22.8015C112.281 22.8015 111.727 22.9892 111.278 23.3647C110.835 23.7402 110.499 24.2511 110.272 24.8974C110.05 25.5437 109.939 26.2792 109.939 27.104C109.939 27.9289 110.05 28.6644 110.272 29.3107C110.499 29.957 110.835 30.4679 111.278 30.8434C111.727 31.2127 112.281 31.3974 112.94 31.3974Z" fill="white"/>
<path d="M95.3107 34.3987C94.2335 34.3987 93.2579 34.1217 92.3839 33.5677C91.516 33.0076 90.8266 32.1859 90.3157 31.1025C89.811 30.0131 89.5586 28.6774 89.5586 27.0954C89.5586 25.4704 89.8202 24.1193 90.3434 23.0422C90.8666 21.9588 91.5621 21.1494 92.43 20.6139C93.3041 20.0722 94.2612 19.8014 95.3015 19.8014C96.0955 19.8014 96.7572 19.9368 97.2866 20.2077C97.8221 20.4723 98.253 20.8047 98.5792 21.2048C98.9116 21.5988 99.1639 21.9865 99.3363 22.3682H99.4563V15.2588H103.38V34.1679H99.5025V31.8966H99.3363C99.1516 32.2905 98.89 32.6814 98.5515 33.0692C98.2191 33.4508 97.7852 33.7678 97.2496 34.0202C96.7203 34.2725 96.074 34.3987 95.3107 34.3987ZM96.5572 31.2687C97.1912 31.2687 97.7267 31.0964 98.1637 30.7517C98.6069 30.4008 98.9454 29.9115 99.1793 29.2836C99.4194 28.6558 99.5394 27.9202 99.5394 27.077C99.5394 26.2337 99.4225 25.5012 99.1886 24.8795C98.9547 24.2578 98.6161 23.7777 98.1729 23.4392C97.7298 23.1006 97.1912 22.9314 96.5572 22.9314C95.9109 22.9314 95.3661 23.1068 94.9229 23.4577C94.4798 23.8085 94.1443 24.2948 93.9165 24.9165C93.6888 25.5381 93.5749 26.2583 93.5749 27.077C93.5749 27.9018 93.6888 28.6312 93.9165 29.2652C94.1504 29.893 94.4859 30.3854 94.9229 30.7425C95.3661 31.0933 95.9109 31.2687 96.5572 31.2687Z" fill="white"/>
<path d="M81.7163 19.9856V22.9402H73.1758V19.9856H81.7163ZM75.1147 16.5879H79.0479V29.8095C79.0479 30.1726 79.1033 30.4558 79.2141 30.6589C79.3249 30.8559 79.4788 30.9944 79.6758 31.0744C79.8789 31.1544 80.1128 31.1944 80.3775 31.1944C80.5621 31.1944 80.7468 31.179 80.9315 31.1483C81.1161 31.1113 81.2577 31.0836 81.3562 31.0652L81.9748 33.992C81.7778 34.0536 81.5008 34.1243 81.1438 34.2044C80.7868 34.2905 80.3529 34.3429 79.842 34.3613C78.8941 34.3983 78.0631 34.2721 77.3491 33.9828C76.6412 33.6935 76.0903 33.2441 75.6964 32.6348C75.3024 32.0254 75.1085 31.256 75.1147 30.3265V16.5879Z" fill="white"/>
<path d="M63.2361 34.435C62.3313 34.435 61.525 34.2781 60.8171 33.9641C60.1093 33.6441 59.5491 33.1732 59.1367 32.5515C58.7305 31.9237 58.5273 31.1419 58.5273 30.2063C58.5273 29.4184 58.672 28.7567 58.9613 28.2212C59.2506 27.6857 59.6445 27.2549 60.1431 26.9286C60.6417 26.6024 61.208 26.3562 61.842 26.19C62.4821 26.0238 63.1531 25.9068 63.8548 25.8391C64.6796 25.753 65.3443 25.6729 65.8491 25.5991C66.3538 25.5191 66.72 25.4021 66.9478 25.2482C67.1755 25.0943 67.2894 24.8666 67.2894 24.565V24.5096C67.2894 23.9248 67.1048 23.4724 66.7354 23.1523C66.3723 22.8323 65.8552 22.6722 65.1843 22.6722C64.4764 22.6722 63.9132 22.8292 63.4947 23.1431C63.0761 23.4509 62.7991 23.8387 62.6637 24.3065L59.0259 24.011C59.2106 23.1493 59.5737 22.4045 60.1154 21.7766C60.6571 21.1426 61.3557 20.6564 62.2113 20.3178C63.073 19.9731 64.0702 19.8008 65.2028 19.8008C65.9906 19.8008 66.7447 19.8931 67.4648 20.0778C68.1912 20.2624 68.8344 20.5487 69.3945 20.9364C69.9608 21.3242 70.4071 21.8228 70.7333 22.4322C71.0595 23.0354 71.2227 23.7586 71.2227 24.6019V34.1673H67.4925V32.2006H67.3817C67.154 32.6438 66.8493 33.0347 66.4677 33.3732C66.0861 33.7056 65.6275 33.9672 65.092 34.158C64.5565 34.3427 63.9379 34.435 63.2361 34.435ZM64.3626 31.7205C64.9412 31.7205 65.4521 31.6067 65.8952 31.3789C66.3384 31.145 66.6862 30.8311 66.9386 30.4371C67.1909 30.0432 67.3171 29.5969 67.3171 29.0984V27.5934C67.194 27.6734 67.0247 27.7473 66.8093 27.815C66.6 27.8765 66.363 27.935 66.0984 27.9904C65.8337 28.0397 65.569 28.0858 65.3043 28.1289C65.0397 28.1658 64.7996 28.1997 64.5842 28.2305C64.1225 28.2982 63.7193 28.4059 63.3746 28.5536C63.0299 28.7013 62.7622 28.9014 62.5714 29.1538C62.3806 29.4 62.2852 29.7077 62.2852 30.0771C62.2852 30.6126 62.479 31.0219 62.8668 31.305C63.2608 31.582 63.7594 31.7205 64.3626 31.7205Z" fill="white"/>
<path d="M47.0075 25.969V34.1679H43.0742V15.2588H46.8967V22.4882H47.0629C47.3829 21.6511 47.9 20.9955 48.614 20.5216C49.328 20.0415 50.2236 19.8014 51.3008 19.8014C52.2856 19.8014 53.1443 20.0168 53.8768 20.4477C54.6154 20.8724 55.1879 21.4849 55.5941 22.2851C56.0065 23.0791 56.2096 24.0301 56.2035 25.1381V34.1679H52.2702V25.8398C52.2764 24.9657 52.0548 24.2855 51.6055 23.7993C51.1623 23.313 50.5406 23.0699 49.7404 23.0699C49.2049 23.0699 48.7309 23.1837 48.3185 23.4115C47.9123 23.6392 47.5922 23.9716 47.3583 24.4086C47.1306 24.8395 47.0136 25.3596 47.0075 25.969Z" fill="white"/>
<path d="M23.8594 34.1672L20 19.9854H23.9794L26.1768 29.5138H26.3061L28.5959 19.9854H32.5014L34.8281 29.4584H34.9482L37.1087 19.9854H41.0788L37.2287 34.1672H33.0646L30.6271 25.2481H30.4517L28.0142 34.1672H23.8594Z" fill="white"/>
<rect y="137" width="69.8846" height="49.1861" rx="24.593" fill="#FF5C00"/>
<path d="M39.978 166.828L39.9872 162.11H40.5597L45.1023 156.727H49.6172L43.5142 163.855H42.5817L39.978 166.828ZM36.4141 170.909V152H40.3473V170.909H36.4141ZM45.2777 170.909L41.1044 164.732L43.7266 161.953L49.8849 170.909H45.2777Z" fill="white"/>
<path d="M26.9801 171.186C25.5459 171.186 24.3056 170.882 23.2592 170.272C22.219 169.657 21.4157 168.801 20.8494 167.706C20.2831 166.604 20 165.327 20 163.874C20 162.409 20.2831 161.129 20.8494 160.033C21.4157 158.931 22.219 158.076 23.2592 157.466C24.3056 156.851 25.5459 156.543 26.9801 156.543C28.4143 156.543 29.6515 156.851 30.6918 157.466C31.7382 158.076 32.5445 158.931 33.1108 160.033C33.6771 161.129 33.9602 162.409 33.9602 163.874C33.9602 165.327 33.6771 166.604 33.1108 167.706C32.5445 168.801 31.7382 169.657 30.6918 170.272C29.6515 170.882 28.4143 171.186 26.9801 171.186ZM26.9986 168.14C27.651 168.14 28.1958 167.955 28.6328 167.586C29.0698 167.21 29.3991 166.699 29.6207 166.053C29.8485 165.407 29.9624 164.671 29.9624 163.846C29.9624 163.021 29.8485 162.286 29.6207 161.64C29.3991 160.993 29.0698 160.482 28.6328 160.107C28.1958 159.731 27.651 159.544 26.9986 159.544C26.34 159.544 25.786 159.731 25.3366 160.107C24.8935 160.482 24.558 160.993 24.3303 161.64C24.1087 162.286 23.9979 163.021 23.9979 163.846C23.9979 164.671 24.1087 165.407 24.3303 166.053C24.558 166.699 24.8935 167.21 25.3366 167.586C25.786 167.955 26.34 168.14 26.9986 168.14Z" fill="white"/>
<path d="M31 198L18.0096 175.5L43.9904 175.5L31 198Z" fill="#FF5C00"/>
<path d="M340 155L327.01 132.5L352.99 132.5L340 155Z" fill="#1400FF"/>
<path d="M31 61L18.0096 38.5L43.9904 38.5L31 61Z" fill="#FF5C00"/>
</svg>
